<?xml version="1.0" encoding="utf-8"?>
<!-- Generator: Adobe Illustrator 24.1.0, SVG Export Plug-In . SVG Version: 6.00 Build 0)  -->
<svg version="1.1" id="Layer_1" xmlns="http://www.w3.org/2000/svg" xmlns:xlink="http://www.w3.org/1999/xlink" x="0px" y="0px"
	 viewBox="0 0 792 612" style="enable-background:new 0 0 792 612;" xml:space="preserve">
<style type="text/css">
	.st0{fill:#4C5051;}
	.st1{fill:#EC7726;}
	.st2{fill:#FFFFFF;}
	.st3{fill:#29397D;}
	.st4{fill:#29397E;}
	.st5{fill:#F9F9FB;}
	.st6{fill:#A6A8B4;}
	.st7{fill:#FEFEFE;}
	.st8{fill:#303A6C;}
	.st9{fill:#27316B;}
	.st10{fill:#252E64;}
	.st11{fill:#15446C;}
</style>
<g>
	<path class="st0" d="M414.98,441.58c-1.52,3.5-2.86,7.04-4.56,10.39c-17.02,33.59-43.92,54.2-81.36,59.29
		c-47.38,6.44-92.52-20.49-110.61-64.77c-19.95-48.83-2.72-104.13,41.7-132.36c47.64-30.27,110.64-17.06,142.81,30.88
		c1.07,1.6,0.72,2.36-0.57,3.51c-7.57,6.75-15.05,13.6-22.6,20.44c0.76,0.98,1.75,0.51,2.58,0.51c9.84,0.04,19.69-0.07,29.53,0.09
		c2.39,0.04,3.26-0.87,4.1-2.94c13.93-34.55,38.67-57.24,75.06-65.88c46.01-10.92,92.79,10.85,115.64,52.84
		c28.75,52.85,8.33,119.73-44.94,147.16c-52.18,26.87-116.27,5.03-142.05-48.42C418.02,448.84,416.58,445.24,414.98,441.58z"/>
	<path class="st1" d="M414.98,433.26c-0.84,2.47-1.48,4.38-2.13,6.29c-5.83,17.12-15.48,31.81-28.87,43.88
		c-14.44,13.02-31.33,21.62-50.54,24.82c-28.72,4.78-55.19-1.37-78.58-18.74c-19.99-14.84-33.1-34.67-38.97-58.92
		c-5.73-23.68-3.91-46.85,6.31-69.11c12.81-27.89,33.94-46.7,63.05-56.32c13.24-4.38,26.91-5.41,40.85-4.07
		c18.42,1.78,34.87,8.43,49.75,19.15c9.02,6.5,16.69,14.4,23.23,23.42c1.52,2.1,1.62,3.19-0.63,5.14
		c-8.5,7.35-16.67,15.08-25.49,23.14c1.41,0,2.25,0,3.1,0c10.66,0,21.33,0.07,31.99-0.04c3.35-0.04,6.52-0.27,6.76,4.62
		c2.18-4.62,3.41-9.27,5.31-13.67c7.01-16.23,17.63-29.65,31.38-40.62c13.2-10.53,28.26-17.13,44.83-20.19
		c11.76-2.18,23.59-2.1,35.37-0.09c17.4,2.97,32.98,10.15,46.67,21.21c14.21,11.47,24.62,25.84,31.41,42.81
		c5.87,14.66,8.34,29.93,7.3,45.61c-1.45,21.85-8.81,41.57-22.45,58.9c-12.71,16.14-28.79,27.51-48.14,34.06
		c-13.78,4.67-28.02,6.06-42.61,4.61c-17.53-1.74-33.46-7.69-47.73-17.72c-19.44-13.66-32.84-31.97-40.02-54.71
		C415.82,435.78,415.49,434.83,414.98,433.26z"/>
	<path class="st2" d="M610.35,405.07c0.03,46-31.69,85.72-76.29,95.5c-40.3,8.84-82.14-10.14-102.85-46.66
		c-28.66-50.55-8.16-114.08,44.59-138.17c36.98-16.89,82.24-7.14,109.31,23.54C601.56,357.94,610.33,380.8,610.35,405.07z"/>
	<path class="st2" d="M393.24,345.91c-11.4,10.32-22.78,20.63-34.2,30.97c0.74,1.02,1.73,0.52,2.53,0.52
		c13.33,0.04,26.66,0.03,39.99,0.03c6.08,0,8.75,2.09,9.96,8c1.8,8.77,2.56,17.65,1.88,26.58c-1.92,25.22-11.86,46.82-30.32,64.16
		c-19.59,18.4-43.09,27.09-69.94,25.99c-44.38-1.81-82.28-35.61-89.8-79.71c-8.54-50.05,21.3-97.72,70.4-110.17
		c38.15-9.67,70.63,1.62,97,30.67C391.56,343.86,392.32,344.83,393.24,345.91z"/>
	<path class="st1" d="M425.72,399.62c2.8-31.55,17.02-56.4,44.5-72.53c49.63-29.14,112.67-3.55,129.11,52.68
		c3.43,11.73,4.41,23.7,3.02,35.84c-0.09,0.8-0.36,1.59-0.55,2.38c-1.18,0.64-2.4,0.31-3.58,0.05c-12.35-2.7-24.82-4.77-37.29-6.84
		c-1.18-0.2-2.47-0.2-3.35-1.25c0.41-7.84-0.25-15.5-3.47-22.81c-7.87-17.82-25.42-27.76-42.99-26.02
		c-20.23,2.01-35.64,16.47-39.02,35.87c-0.17,1-0.13,2.04-0.18,3.06c-0.53,0.74,0.15,2-1.04,2.47c-6-0.1-12.03,0.27-17.99-0.24
		c-7.44-0.63-14.87-0.31-22.3-0.49c-1.52-0.04-3.07,0.16-4.5-0.59C425.49,400.78,425.49,400.23,425.72,399.62z"/>
	<path class="st1" d="M599.55,429.27c-4.46,16.73-13.07,31.01-25.84,42.64c-19.34,17.62-42.35,25.83-68.23,22.71
		c-37.5-4.52-62.42-25.72-75.29-61.09c-2.41-6.63-3.68-13.58-4.15-20.64c0.86-1.33,2.25-1.27,3.56-1.32
		c13.2-0.5,26.36,0.82,39.55,0.62c1.04-0.02,2.03,0.22,2.86,0.91c1.84,7.17,4.56,13.89,9.36,19.67c20.73,24.95,59.32,19.64,72.54-10
		c0.33-0.73,0.74-1.43,1.12-2.14c1.47-0.78,3-0.4,4.49-0.16c12.19,1.94,24.34,4.04,36.4,6.66
		C597.3,427.44,599.13,427.25,599.55,429.27z"/>
	<path class="st1" d="M479.86,405.13c0.03-19.47,15.47-35.1,34.64-35.06c19.08,0.04,34.46,15.84,34.41,35.33
		c-0.05,19.4-15.61,34.98-34.83,34.88C495.08,440.19,479.83,424.52,479.86,405.13z"/>
	<path class="st3" d="M472.02,413.11c-14.01-0.2-28.03-0.4-42.04-0.58c-1.32-0.02-2.67-0.18-3.94,0.37
		c-0.11-0.75-0.22-1.49-0.32-2.24c-0.72-2.31,0.39-3.31,2.55-3.34c7.87-0.11,15.77-0.46,23.62,0.15c5.12,0.4,10.22,0.23,15.32,0.39
		c1.74,0.06,3.53,0,4.69,1.69C471.94,410.73,471.98,411.92,472.02,413.11z"/>
	<path class="st4" d="M599.55,429.27c-4.19-1.99-8.8-2.32-13.25-3.16c-10.39-1.97-20.84-3.67-31.26-5.47
		c-0.01-3.59,2.26-3.58,4.87-3.13c12.95,2.22,25.94,4.28,38.75,7.26c0.39,0.09,0.82,0.06,1.23,0.08c0.28,0.14,0.62,0.21,0.7,0.6
		C600.24,426.72,599.89,428,599.55,429.27z"/>
	<path class="st5" d="M471.89,409.54c-1.24-0.58-2.59-0.57-3.9-0.59c-13.25-0.19-26.5-0.95-39.76-0.8c-2,0.02-2.76,0.57-2.51,2.5
		c-0.83-3.68-0.83-7.36,0-11.04c0.06,0.41,0.12,0.81,0.19,1.22c0.91,1.91,2.26,2.8,4.55,2.8c12.34,0,24.67,0.42,36.99,1.1
		c2.29,0.13,2.95-1.36,3.89-2.77c0.19-0.64,0.39-1.28,0.58-1.91C471.9,403.21,471.9,406.38,471.89,409.54z"/>
	<path class="st4" d="M557.57,409.95c14.86,2.01,29.6,4.68,44.22,8.04c0.33,2.57-0.1,3.91-3.33,3.16
		c-12.48-2.89-25.07-5.2-37.76-6.9C557.98,413.88,556.09,413.22,557.57,409.95z"/>
	<path class="st6" d="M600.58,425.45c-0.23-0.2-0.46-0.4-0.7-0.6c0.34-0.44,0.67-0.89,1.02-1.36
		C601.39,424.23,601.17,424.86,600.58,425.45z"/>
	<path class="st1" d="M407.48,414.22c-1.44,18.4-8.29,34.67-19.84,48.9c-14.29,17.6-32.75,28.51-55.12,32.28
		c-38.28,6.44-76.18-12.51-94.43-46.83c-3.46-6.5-6.26-13.26-7.83-20.48c0.64-0.97,1.7-1.07,2.7-1.25
		c13.91-2.5,27.93-4.24,41.99-5.65c0.73-0.07,1.43-0.03,2.09,0.31c5.09,11.38,13.06,19.87,24.81,24.5
		c20.07,7.9,43.25-0.37,53.76-19.15c0.43-0.77,0.76-1.6,1.26-2.67c-12.36,0-24.41,0-36.47,0c-4.72,0-4.72,0-4.66-4.64
		c0.01-0.51,0.07-1.02,0.11-1.53c0.24-0.25,0.52-0.42,0.85-0.54c1.18-0.23,2.37-0.45,3.54-0.77c27.43-2.34,54.89-4.12,82.43-4.42
		c1.48,0.09,3.01-0.2,4.43,0.49C407.65,413.13,407.72,413.64,407.48,414.22z"/>
	<path class="st1" d="M228.32,417.31c-1.47-7.1-1.27-14.3-0.46-21.4c2.54-22.37,11.97-41.45,28.38-56.93
		c36.14-34.09,93.91-32.03,127.39,4.43c1.33,1.45,1.77,2.19,0.01,3.76c-10.34,9.19-20.6,18.48-30.77,27.86
		c-1.78,1.64-2.61,1.77-4.5-0.02c-12.85-12.14-27.96-16.04-44.73-10.31c-16.5,5.65-26.08,17.76-29,34.92
		c-0.61,3.59-0.2,7.35-0.27,11.04c-2.81,1.82-6.09,1.49-9.18,1.91c-10.92,1.47-21.83,3.03-32.69,4.88
		C231.12,417.68,229.7,418.08,228.32,417.31z"/>
	<path class="st1" d="M346.5,429.73c-11.48,14.56-35.74,19.43-53.43,4.56c-16.62-13.98-17.82-38.98-2.63-54.81
		c15.56-16.22,39.95-13.85,51.92-2.05c-5.46,0-10.63,0-15.8,0c-4.81,0-9.63,0.05-14.44-0.03c-1.42-0.02-1.94,0.34-1.94,1.87
		c0.05,16.18,0.07,32.35-0.02,48.53c-0.01,2.12,1.07,1.95,2.47,1.95C323.78,429.72,334.94,429.73,346.5,429.73z"/>
	<path class="st1" d="M315.85,405.82c-0.04-6.96,0-13.92-0.17-20.87c-0.05-2.09,1.02-1.97,2.44-1.97
		c9.73,0.03,19.46,0.01,29.19,0.01c18.33,0,36.66,0.04,54.99-0.06c2.27-0.01,3.28,0.59,3.65,2.87c0.82,5.04,1.79,10.05,1.9,15.18
		c-3.29,1.32-6.82,1.37-10.23,1.33c-13.09-0.14-26.15,0.74-39.2,1.42c-12.54,0.66-25.08,1.5-37.58,2.79
		C319.16,406.72,317.38,407.06,315.85,405.82z"/>
	<path class="st4" d="M402.99,413.05c-13.29,0.48-26.59,0.76-39.87,1.49c-13.26,0.72-26.49,1.9-39.74,2.86
		c-1.33,0.1-2.66,0.07-3.99,0.1c-1.06-0.01-2.17-0.34-3.1,0.47l-0.22,0.05c0,0-0.22-0.01-0.22-0.01c-0.03-1.56-0.06-3.11-0.08-4.67
		c2.34-1.96,5.28-1.41,7.92-1.64c14.57-1.27,29.15-2.39,43.76-3.07c10.01-0.47,20.03-1.18,30.07-0.73c2.21,0.14,4.41,0.02,6.62,0.08
		c3.36,0.09,3.48,0.23,3.49,3.66c-0.84,1.32-2.2,0.95-3.31,0.81c-2.11-0.26-4.23-0.2-6.14-0.27
		C399.59,412.74,401.58,411.3,402.99,413.05z"/>
	<path class="st4" d="M315.85,405.82c13.63-1.01,27.26-2.09,40.9-2.99c8.76-0.58,17.53-0.96,26.31-1.27
		c8.27-0.3,16.54-0.39,24.81-0.57c0.08,0.57,0.15,1.14,0.23,1.7c0.58,1.85-0.47,2.66-2.02,3.1c-1.29,0.37-2.64,0.33-3.97,0.29
		c-14.02-0.34-28,0.63-41.98,1.38c-12.64,0.68-25.3,1.48-37.9,2.8c-2.19,0.23-4.51,0.66-6.53-0.82
		C315.75,408.24,315.8,407.03,315.85,405.82z"/>
	<path class="st7" d="M315.69,409.45c7.68,0.25,15.26-1.15,22.92-1.46c7.66-0.31,15.3-1.19,22.96-1.59
		c14.63-0.77,29.26-1.35,43.91-1.5c1.59-0.02,2.86-0.14,2.61-2.2c0.81,2.04,0.82,4.09-0.01,6.13c-3.56-0.5-7.13-0.48-10.7-0.06
		c-10.63-0.15-21.23,0.45-31.83,1.04c-10.9,0.6-21.8,1.36-32.7,2.12c-5.7,0.4-11.38,0.94-17.08,1.42
		C315.74,412.04,315.72,410.74,315.69,409.45z"/>
	<path class="st4" d="M277.04,421.48c-6.17,1.4-12.5,1.53-18.73,2.46c-9.35,1.4-18.7,2.76-28.05,4.13
		c-1.28-2.61-0.82-3.73,2.43-4.23c11.9-1.81,23.8-3.65,35.74-5.19c1.32-0.17,2.66-0.28,3.93-0.61
		C275.39,417.26,276.92,418.37,277.04,421.48z"/>
	<path class="st4" d="M228.32,417.31c15.28-2.75,30.61-5.08,46.06-6.65c1.11,2.63,0.5,3.68-2.6,4.06c-10.81,1.32-21.57,3-32.35,4.56
		c-2.52,0.36-5.08,0.59-7.51,1.27C228.7,421.46,227.91,420.17,228.32,417.31z"/>
	<path class="st8" d="M397.38,408.76c3.57-0.38,7.14-1.07,10.7,0.06c-0.3,1.79,0.13,3.66-0.6,5.4c-0.08-0.37-0.16-0.75-0.25-1.12
		c-0.26-0.41-0.23-0.81,0.05-1.2c0.47-2.36-0.36-3.35-2.89-3.13C402.07,408.97,399.72,408.78,397.38,408.76z"/>
	<path class="st4" d="M471.33,401.96c0.17,4.57,0.39,3.72-3.59,3.62c-12.88-0.33-25.75-0.83-38.63-0.93
		c-3.25-0.03-3.83-1.12-3.2-3.81C441.06,400.77,456.2,401.1,471.33,401.96z"/>
	<path class="st9" d="M407.28,411.91c-0.02,0.4-0.03,0.8-0.05,1.2c-1.41-0.02-2.83-0.04-4.24-0.06c-1.85-1.22-3.98-0.06-5.91-1.14
		C400.48,411.91,403.88,411.91,407.28,411.91z"/>
	<path class="st10" d="M316.29,417.96c0.78-1.82,1.91-1.37,3.1-0.47C318.46,418.34,317.35,417.99,316.29,417.96z"/>
</g>
<g>
	<g>
		<path class="st11" d="M270.1,294.38c-18.11,4.49-36.07,9.81-53.84,15.96c-0.76-1.93-1.52-3.86-2.28-5.8
			c4.17-1.45,8.35-2.85,12.54-4.21c-11.31-30.89-22.59-61.81-33.82-92.73c-4.91,1.63-9.81,3.32-14.7,5.06
			c-0.75-1.93-1.51-3.87-2.26-5.8c19.99-7.13,40.2-13.38,60.58-18.74c18.44-4.87,36.22,4.04,39.52,19.05
			c2.74,12.38-7.16,25.78-21.77,30.72c7.84-1.1,10.8-1.09,15.93-0.21c12.73,2.11,21.4,10.45,23.85,21.66
			C297.3,275.58,287.11,290.17,270.1,294.38z M232.49,197.18c-7.34,2-14.66,4.11-21.96,6.33c4.41,13.27,8.83,26.55,13.26,39.82
			c6.28-1.9,12.59-3.7,18.91-5.42c12.02-3.25,18.37-13.89,15.28-26.01C255.07,200.46,244.27,193.98,232.49,197.18z M246.71,244.69
			c-6.86,1.83-13.7,3.78-20.52,5.83c4.89,14.65,9.79,29.3,14.7,43.95c6.31-1.87,12.64-3.64,18.98-5.31
			c14.21-3.72,20.89-13.73,17.6-27.21C274.16,248.35,261.14,240.83,246.71,244.69z"/>
		<path class="st11" d="M423.91,169.94c-0.14,21.66-0.27,43.33-0.37,64.99c-0.12,18.28-7.01,29.9-21.04,37.91
			c-7.13,3.94-15.18,6.32-23.54,6.87c-24.46,1.56-45.13-11.78-48.79-33.69c-3.52-22.82-7.01-45.65-10.48-68.47
			c-5.06,0.73-10.12,1.52-15.18,2.36c-0.36-2.06-0.72-4.11-1.08-6.17c16.19-2.7,32.44-4.85,48.72-6.47
			c0.21,2.08,0.42,4.17,0.63,6.25c-5.08,0.5-10.17,1.06-15.24,1.67c2.64,21.2,5.29,42.4,7.97,63.59
			c2.74,20.36,16.72,32.08,35.83,30.91c19.62-1.18,32.85-14.9,32.81-35.4c-0.23-21.42-0.44-42.83-0.64-64.25
			c-5.1,0.08-10.2,0.22-15.3,0.4c-0.07-2.1-0.13-4.2-0.2-6.3c13.79-0.51,27.6-0.64,41.39-0.38c-0.06,2.11-0.12,4.21-0.19,6.32
			C434.11,169.98,429.01,169.93,423.91,169.94z"/>
		<path class="st11" d="M514.86,283.66c0.35-2.09,0.71-4.19,1.06-6.28c4.57,0.71,9.14,1.48,13.69,2.3
			c-2-10.93-4.22-21.85-6.66-32.76c-15.43-2.41-30.94-4.27-46.48-5.58c-5.39,9.87-10.56,19.79-15.49,29.75
			c4.79,0.32,9.57,0.69,14.35,1.12c-0.21,2.16-0.42,4.32-0.62,6.49c-10.87-0.98-21.76-1.68-32.66-2.08
			c0.08-2.16,0.16-4.33,0.24-6.49c3,0.11,6.01,0.24,9.01,0.39c16.96-35.84,36.86-71.15,59.68-105.6c2.47,0.28,4.94,0.58,7.41,0.89
			c11.75,38.61,20.69,77.6,26.8,116.68c3.23,0.66,6.47,1.35,9.69,2.07c-0.52,2.13-1.03,4.26-1.55,6.39
			C540.57,288.11,527.75,285.68,514.86,283.66z M508.05,187.94c-9.66,15.08-18.76,30.32-27.31,45.68
			c13.53,1.2,27.04,2.81,40.49,4.84C517.36,221.57,512.96,204.72,508.05,187.94z"/>
		<path class="st11" d="M602.02,306.28c-10.35-3.21-16.39-7.26-23.25-14.84c-0.66,2.28-1.32,4.56-1.97,6.84
			c-2.6-0.69-5.21-1.36-7.81-2.02c2.74-10.04,5.48-20.08,8.23-30.12c2.75,0.68,5.51,1.38,8.25,2.1c-1.27,4.39-2.54,8.79-3.81,13.18
			c8.43,9.61,12.33,12.59,19.71,14.81c13.31,4.06,24.83,0.37,28.8-9.93c3.49-9.26-0.42-18.65-16.83-33.76
			c-19.27-17.57-25.46-27.64-21.64-41.44c4.36-16.57,24.78-25.07,47.51-18.29c9.98,2.99,16.81,6.87,21.91,12.08
			c0.75-1.96,1.5-3.92,2.24-5.88c3.04,1.02,6.08,2.06,9.11,3.12c-3.69,9.27-7.37,18.55-11.06,27.82c-2.9-1.02-5.8-2.02-8.71-3.01
			c1.47-3.87,2.95-7.74,4.42-11.6c-7.76-8.86-12.17-12.06-20.03-14.44c-13.46-4.03-24.28,0.54-27.36,10.85
			c-2.67,8.56,1.84,14.61,20.73,33.63c18.61,19.21,21.56,28.92,16.19,42.15C639.56,304.39,620.39,312.01,602.02,306.28z"/>
	</g>
</g>
</svg>
